<?xml version="1.0" standalone="no"?>
<!DOCTYPE svg PUBLIC "-//W3C//DTD SVG 20010904//EN"
 "http://www.w3.org/TR/2001/REC-SVG-20010904/DTD/svg10.dtd">
<svg version="1.0" xmlns="http://www.w3.org/2000/svg"
 width="1024.000000pt" height="1024.000000pt" viewBox="0 0 1024.000000 1024.000000"
 preserveAspectRatio="xMidYMid meet">

<g transform="translate(0.000000,1024.000000) scale(0.100000,-0.100000)"
fill="#000000" stroke="none">
<path d="M4958 8419 c-757 -67 -1509 -410 -2046 -933 -506 -493 -861 -1128
-991 -1777 -68 -336 -80 -802 -29 -1107 9 -58 13 -64 48 -82 53 -27 87 -71
138 -180 69 -144 108 -205 179 -281 177 -188 371 -263 766 -299 66 -6 203 -25
305 -43 l187 -31 1665 -4 c1722 -3 1757 -3 1994 38 61 10 161 24 221 30 465
46 614 90 786 228 100 81 175 181 243 322 66 140 104 193 154 219 37 19 39 23
50 88 78 449 38 969 -108 1428 -164 511 -483 1032 -869 1415 -554 550 -1301
902 -2061 970 -130 11 -500 11 -632 -1z m527 -259 c440 -31 793 -129 1170
-324 500 -259 902 -614 1204 -1064 270 -404 421 -781 503 -1257 19 -114 22
-167 23 -430 0 -191 -5 -338 -13 -405 -23 -182 -53 -383 -64 -430 -9 -39 -44
-120 -51 -120 -1 0 -3 84 -4 188 -4 245 -20 546 -39 702 -42 357 -130 513
-349 621 -99 48 -100 49 -158 135 -33 47 -57 87 -55 89 2 2 49 14 103 26 185
39 225 69 225 166 0 75 -25 114 -94 148 -78 38 -219 75 -311 82 -73 5 -82 3
-109 -18 l-29 -23 7 -95 c4 -52 5 -93 3 -91 -2 3 -62 91 -132 195 -154 228
-309 437 -387 521 -61 64 -142 114 -218 132 -143 35 -631 85 -980 102 -760 36
-1796 -34 -2006 -136 -58 -27 -129 -94 -207 -192 -92 -117 -239 -321 -344
-481 l-102 -155 6 86 c3 47 3 97 0 110 -14 54 -92 61 -248 22 -139 -34 -243
-84 -266 -127 -22 -42 -21 -128 1 -163 23 -35 88 -62 205 -86 53 -11 98 -21
100 -23 5 -6 -58 -109 -92 -151 -18 -22 -62 -50 -125 -80 -291 -140 -358 -357
-380 -1219 -7 -269 -8 -279 -24 -250 -39 72 -80 309 -103 595 -44 535 19 983
203 1430 275 672 820 1279 1442 1608 532 281 1105 404 1695 362z m450 -1350
c228 -16 406 -37 553 -67 73 -14 131 -28 129 -30 -2 -2 -82 2 -178 8 -235 14
-1877 24 -1864 11 6 -6 91 -56 190 -112 99 -57 225 -129 281 -161 55 -33 106
-59 114 -59 7 0 11 -2 8 -5 -3 -3 -38 -1 -79 5 -73 10 -451 31 -457 25 -2 -2
32 -24 75 -51 226 -138 311 -188 337 -199 24 -10 -24 -14 -285 -19 -382 -9
-877 -32 -1176 -55 -51 -3 -93 -5 -93 -4 0 25 195 373 272 486 69 100 103 132
157 147 123 33 507 75 826 90 233 11 986 5 1190 -10z m-3016 -682 c-12 -58
-25 -111 -29 -118 -6 -10 -30 -8 -110 9 -56 11 -109 26 -116 32 -43 35 7 108
98 142 42 16 170 47 175 42 2 -1 -7 -49 -18 -107z m4796 85 c106 -33 155 -74
155 -128 0 -39 -7 -42 -152 -73 l-87 -19 -26 111 c-14 61 -25 117 -25 124 0
16 56 10 135 -15z m-1875 -153 c541 -16 1347 -63 1364 -80 14 -14 -12 -158
-38 -216 -13 -29 -38 -72 -55 -96 -105 -145 -187 -251 -239 -308 l-59 -65
-694 -7 c-630 -7 -1656 -4 -2194 7 l-210 4 -61 64 c-71 74 -205 239 -199 245
2 2 -12 24 -31 50 -65 84 -92 156 -110 283 l-6 46 89 6 c356 27 1029 59 1468
70 264 7 681 6 975 -3z m-2777 -186 c9 -23 36 -76 61 -119 25 -42 46 -79 46
-82 0 -23 188 -231 245 -270 18 -13 -58 9 -195 57 -317 109 -350 122 -350 138
0 23 163 333 170 325 4 -4 14 -27 23 -49z m4521 -129 c41 -82 72 -153 68 -156
-20 -19 -552 -202 -560 -194 -3 3 0 5 6 5 7 0 49 37 95 83 83 82 162 188 231
305 20 35 43 70 50 78 8 8 12 24 9 36 -12 52 28 -11 101 -157z m-4669 -351
c77 -30 185 -68 240 -84 145 -42 527 -138 600 -151 l62 -11 159 -150 c267
-254 301 -278 424 -297 96 -15 484 -41 730 -48 287 -8 906 26 1046 57 85 19
114 41 355 272 166 158 190 177 225 178 40 0 466 110 608 156 77 26 222 77
320 115 99 38 181 69 183 69 11 0 -12 -195 -33 -278 -28 -113 -67 -187 -114
-218 -48 -31 -272 -84 -585 -139 -143 -25 -273 -50 -289 -55 -56 -19 -48 -9
65 78 135 104 331 273 325 279 -2 2 -35 -5 -72 -16 -38 -11 -134 -38 -214 -61
l-145 -41 -105 -103 c-304 -298 -365 -338 -558 -371 -243 -41 -852 -64 -1192
-46 -461 25 -624 45 -724 90 -76 34 -235 166 -439 364 -74 72 -57 65 -322 137
-82 22 -156 43 -163 45 -33 12 16 -40 111 -118 120 -98 252 -203 293 -234 l29
-22 -70 19 c-38 11 -188 40 -333 65 -426 73 -525 102 -573 167 -52 72 -109
291 -109 418 l0 39 63 -26 c34 -14 125 -50 202 -79z m1615 -240 c245 -4 457
-7 473 -7 30 0 31 -1 17 -28 -10 -17 -22 -19 -124 -19 -191 0 -666 19 -761 31
-49 6 -101 17 -115 25 -24 13 -23 13 20 9 25 -2 245 -7 490 -11z m-1970 -147
c80 -89 184 -136 525 -236 39 -12 147 -39 241 -60 293 -68 496 -128 624 -183
142 -62 292 -110 379 -123 53 -8 229 -20 391 -26 306 -13 960 -19 960 -8 0 3
91 9 203 12 322 11 381 22 587 112 166 72 279 108 645 200 204 51 408 105 455
119 282 82 386 146 451 273 10 20 19 33 20 28 0 -6 2 -26 3 -45 2 -19 6 -179
11 -355 8 -340 3 -431 -36 -574 -11 -40 -26 -85 -34 -100 -15 -25 -15 -25 -13
24 2 28 -1 140 -6 251 -6 154 -5 207 4 225 9 17 0 12 -31 -17 -60 -58 -108
-76 -299 -119 -351 -77 -799 -191 -884 -224 l-28 -11 38 -30 c39 -31 244 -240
244 -250 0 -3 -49 -3 -110 -2 l-110 4 -88 87 c-105 104 -192 168 -297 218
l-78 37 -1069 -1 -1068 0 -77 -39 c-104 -52 -180 -109 -289 -216 l-91 -89
-114 3 -114 3 138 139 c76 76 137 139 135 140 -5 4 -207 63 -288 85 -64 17
-307 73 -659 152 -113 25 -177 57 -234 115 l-48 49 12 -34 c10 -27 10 -70 1
-190 -7 -86 -12 -194 -13 -241 l-1 -85 -24 72 c-56 172 -71 373 -59 798 l7
270 19 -51 c10 -27 42 -75 69 -107z m3939 143 c-38 -22 -505 -50 -848 -50
-116 0 -136 2 -147 18 -7 9 -14 20 -14 23 0 3 105 6 233 8 127 1 234 5 236 7
2 2 128 4 280 4 173 0 270 -4 260 -10z m-1541 -116 c34 -4 42 -9 42 -26 0 -21
-1 -21 -249 -15 -273 8 -617 33 -641 48 -15 10 764 3 848 -7z m1457 7 c-15
-14 -361 -40 -640 -48 l-245 -6 0 26 0 27 318 3 c174 1 375 3 447 5 80 1 125
-2 120 -7z m-1539 -117 c127 -5 142 -8 153 -27 l13 -20 -208 6 c-233 8 -595
35 -606 45 -8 8 440 5 648 -4z m1418 6 c-25 -25 -804 -66 -804 -43 0 32 32 35
387 42 197 4 374 8 393 9 22 1 31 -1 24 -8z m-1439 -116 c189 -5 248 -9 280
-22 54 -23 208 -23 250 0 25 13 81 17 315 22 157 4 330 9 385 12 55 3 98 3 94
0 -8 -8 -251 -33 -449 -46 -96 -6 -235 -15 -309 -20 -143 -9 -497 6 -836 36
-232 20 -284 35 -105 29 74 -3 243 -7 375 -11z m-1895 -621 c2 -2 -4 -19 -14
-36 -44 -74 -75 -143 -81 -179 -7 -42 -12 -45 -40 -24 -19 14 -19 15 -1 72 10
33 31 87 47 122 27 59 29 62 56 56 15 -4 30 -9 33 -11z m4695 -39 c23 -50 68
-195 62 -200 -1 -1 -12 -5 -24 -8 -18 -6 -22 -2 -28 26 -10 47 -53 146 -81
187 -22 33 -23 36 -7 43 40 15 52 8 78 -48z m-4295 -54 c80 -12 147 -24 149
-26 10 -10 -95 -105 -127 -115 -30 -10 -362 -29 -362 -21 0 9 73 111 106 150
30 36 42 43 63 39 14 -3 91 -15 171 -27z m4074 -60 c36 -49 66 -92 66 -96 0
-10 -310 3 -350 15 -36 11 -139 105 -127 117 6 6 276 50 324 53 16 1 38 -21
87 -89z m-1421 -17 c125 -3 226 -8 224 -9 -9 -10 -381 -35 -664 -46 -326 -12
-716 -4 -1043 22 -217 17 -233 24 -70 30 223 9 1299 11 1553 3z"/>
<path d="M2949 6810 c-17 -55 -75 -118 -118 -126 -37 -8 -31 -17 20 -33 46
-15 73 -44 96 -104 l19 -49 13 41 c14 50 69 107 110 116 45 10 45 21 3 33 -49
15 -88 56 -111 118 l-19 49 -13 -45z"/>
<path d="M7536 6798 c-21 -60 -52 -92 -109 -111 -35 -12 -39 -16 -22 -21 77
-26 116 -62 139 -129 l13 -38 12 41 c15 52 71 107 116 116 42 8 45 19 7 27
-44 9 -83 47 -111 109 l-26 58 -19 -52z"/>
<path d="M4538 5953 c7 -3 16 -2 19 1 4 3 -2 6 -13 5 -11 0 -14 -3 -6 -6z"/>
<path d="M5128 5953 c7 -3 16 -2 19 1 4 3 -2 6 -13 5 -11 0 -14 -3 -6 -6z"/>
<path d="M6423 5935 c7 -7 18 -10 24 -8 21 8 14 21 -11 21 -19 0 -22 -3 -13
-13z"/>
<path d="M6648 5933 c6 -2 18 -2 25 0 6 3 1 5 -13 5 -14 0 -19 -2 -12 -5z"/>
<path d="M3738 5923 c7 -3 16 -2 19 1 4 3 -2 6 -13 5 -11 0 -14 -3 -6 -6z"/>
<path d="M6728 5923 c6 -2 18 -2 25 0 6 3 1 5 -13 5 -14 0 -19 -2 -12 -5z"/>
<path d="M4070 5766 c0 -2 8 -10 18 -17 15 -13 16 -12 3 4 -13 16 -21 21 -21
13z"/>
<path d="M6389 5723 c-13 -16 -12 -17 4 -4 9 7 17 15 17 17 0 8 -8 3 -21 -13z"/>
<path d="M4160 5696 c0 -2 7 -7 16 -10 8 -3 12 -2 9 4 -6 10 -25 14 -25 6z"/>
<path d="M4248 5673 c6 -2 18 -2 25 0 6 3 1 5 -13 5 -14 0 -19 -2 -12 -5z"/>
<path d="M4338 5673 c12 -2 32 -2 45 0 12 2 2 4 -23 4 -25 0 -35 -2 -22 -4z"/>
<path d="M5755 5670 l-280 -5 300 -3 c197 -1 295 2 285 8 -8 5 -17 9 -20 8 -3
-2 -131 -5 -285 -8z"/>
<path d="M6123 5673 c26 -2 68 -2 95 0 26 2 4 3 -48 3 -52 0 -74 -1 -47 -3z"/>
<path d="M4763 5663 c37 -2 97 -2 135 0 37 2 6 3 -68 3 -74 0 -105 -1 -67 -3z"/>
<path d="M5298 5653 c12 -2 32 -2 45 0 12 2 2 4 -23 4 -25 0 -35 -2 -22 -4z"/>
<path d="M3470 5595 c24 -32 40 -47 40 -37 0 4 -12 19 -27 33 -20 18 -23 19
-13 4z"/>
<path d="M6885 5580 c-3 -6 1 -7 9 -4 18 7 21 14 7 14 -6 0 -13 -4 -16 -10z"/>
<path d="M6810 5460 c-8 -5 -10 -10 -5 -10 6 0 17 5 25 10 8 5 11 10 5 10 -5
0 -17 -5 -25 -10z"/>
<path d="M3988 5393 c12 -2 30 -2 40 0 9 3 -1 5 -23 4 -22 0 -30 -2 -17 -4z"/>
<path d="M4233 5393 c43 -2 110 -2 150 0 40 1 5 3 -78 3 -82 0 -115 -2 -72 -3z"/>
<path d="M5918 5393 c18 -2 45 -2 60 0 15 2 0 4 -33 4 -33 0 -45 -2 -27 -4z"/>
<path d="M6123 5393 c53 -2 141 -2 195 0 53 1 9 3 -98 3 -107 0 -151 -2 -97
-3z"/>
<path d="M4870 5380 c41 -4 98 -4 125 0 34 4 10 6 -75 7 -110 0 -116 -1 -50
-7z"/>
<path d="M5483 5383 c9 -2 23 -2 30 0 6 3 -1 5 -18 5 -16 0 -22 -2 -12 -5z"/>
<path d="M5568 5383 c23 -2 59 -2 80 0 20 2 1 4 -43 4 -44 0 -61 -2 -37 -4z"/>
<path d="M5158 5373 c23 -2 61 -2 85 0 23 2 4 4 -43 4 -47 0 -66 -2 -42 -4z"/>
<path d="M5337 5373 c18 -2 50 -2 70 0 21 2 7 4 -32 4 -38 0 -55 -2 -38 -4z"/>
<path d="M2496 4926 c16 -52 65 -135 103 -173 84 -87 150 -112 576 -222 505
-129 609 -166 680 -240 21 -22 42 -41 46 -41 3 0 38 18 77 41 39 22 92 46 119
53 l48 12 -48 28 c-188 110 -440 189 -1077 336 -313 72 -405 107 -485 184 -33
31 -44 37 -39 22z"/>
<path d="M7995 4910 c-54 -61 -189 -120 -355 -155 -198 -42 -716 -171 -837
-209 -140 -44 -274 -96 -338 -131 -27 -15 -63 -35 -80 -43 l-30 -16 39 -8 c36
-8 161 -64 199 -91 15 -10 23 -6 60 35 65 73 110 90 507 195 633 167 683 185
768 270 50 50 96 131 90 159 -2 14 -6 13 -23 -6z"/>
<path d="M4943 4353 c9 -2 25 -2 35 0 9 3 1 5 -18 5 -19 0 -27 -2 -17 -5z"/>
<path d="M5548 4353 c18 -2 45 -2 60 0 15 2 0 4 -33 4 -33 0 -45 -2 -27 -4z"/>
<path d="M5148 4343 c17 -2 47 -2 65 0 17 2 3 4 -33 4 -36 0 -50 -2 -32 -4z"/>
<path d="M1558 4426 c-170 -46 -238 -226 -137 -365 49 -68 102 -92 230 -102
71 -6 127 -16 155 -28 27 -12 95 -69 179 -149 129 -124 258 -223 355 -272 l45
-23 -150 -44 c-230 -67 -381 -95 -611 -112 -173 -14 -190 -18 -235 -61 -33
-31 -39 -43 -39 -79 0 -54 22 -97 62 -117 26 -14 52 -16 143 -11 60 3 151 13
200 22 142 25 455 107 768 199 328 97 402 114 532 123 155 10 250 -10 530
-113 120 -44 137 -48 225 -48 83 -1 114 5 244 42 152 43 318 83 324 78 11 -11
-251 -159 -398 -224 -137 -61 -256 -54 -527 29 -143 45 -171 50 -289 56 -185
9 -273 -11 -535 -123 -323 -137 -443 -171 -543 -153 -101 18 -186 15 -233 -9
-81 -42 -107 -103 -75 -175 29 -66 77 -82 220 -74 128 7 260 39 422 103 142
56 240 108 395 210 164 107 195 117 320 111 56 -3 120 -12 145 -21 104 -39
280 -77 396 -86 127 -11 239 -3 368 24 36 7 66 12 66 11 0 -12 -193 -112 -339
-175 -339 -149 -582 -208 -894 -216 -87 -2 -167 -8 -176 -14 -10 -5 -24 -24
-31 -41 -12 -27 -11 -36 1 -58 21 -37 55 -51 129 -51 139 0 424 44 628 96 454
117 771 297 1036 590 49 54 101 108 117 121 54 45 149 70 149 39 0 -8 8 -13
17 -12 34 2 25 -39 -23 -110 -198 -291 -368 -474 -554 -597 -199 -131 -449
-252 -616 -298 -78 -21 -80 -21 -151 -4 -119 30 -221 3 -269 -71 -25 -38 -29
-112 -7 -153 55 -104 177 -105 448 -3 309 116 630 296 955 537 69 51 149 105
179 121 62 33 83 58 140 170 44 86 98 149 144 168 34 15 84 9 91 -11 14 -35
-73 -313 -139 -444 -44 -87 -114 -187 -151 -216 -33 -25 -35 -25 -54 -8 -11
10 -17 22 -14 26 3 5 1 9 -3 9 -19 0 -43 -60 -43 -108 0 -61 25 -97 79 -113
104 -31 215 78 300 293 45 113 67 213 107 465 40 261 70 393 90 393 7 0 15 -8
18 -17 16 -55 37 -168 61 -323 59 -393 125 -595 243 -737 79 -97 190 -105 243
-19 24 40 24 70 -2 126 -20 43 -22 44 -32 23 -51 -110 -246 196 -333 521 -33
127 -31 139 25 143 76 5 121 -35 196 -172 60 -110 70 -121 173 -190 53 -36
154 -107 224 -158 180 -130 306 -208 514 -312 385 -195 659 -278 753 -228 138
73 81 282 -82 300 -24 3 -78 -2 -120 -11 -94 -19 -133 -13 -292 49 -311 121
-531 254 -717 434 -114 109 -218 237 -317 391 -64 99 -73 126 -43 137 9 4 20
12 24 19 9 14 57 6 104 -19 17 -9 78 -66 135 -128 239 -257 491 -421 829 -539
272 -96 558 -155 803 -166 106 -5 127 -3 156 13 21 11 38 28 42 44 8 31 -14
84 -39 95 -10 4 -84 8 -167 9 -313 4 -618 82 -990 254 -89 42 -249 131 -243
136 2 2 48 -6 103 -16 122 -24 290 -28 407 -9 83 12 89 12 110 -6 19 -16 20
-16 9 -1 -8 9 -12 19 -10 21 2 2 64 22 138 45 111 34 147 41 215 41 106 -1
155 -19 296 -110 208 -134 394 -220 611 -282 101 -29 128 -33 239 -33 105 0
130 3 156 19 96 58 77 185 -35 233 -41 17 -141 18 -230 2 -60 -10 -75 -9 -145
10 -87 24 -301 102 -509 186 -169 68 -278 89 -427 82 -90 -4 -135 -13 -310
-63 -189 -54 -213 -59 -305 -59 -93 0 -201 21 -166 33 7 2 -22 17 -65 32 -44
15 -106 41 -139 58 -64 32 -235 142 -222 142 19 0 225 -52 333 -85 74 -23 149
-38 199 -41 89 -6 128 3 370 90 161 58 292 80 424 72 125 -9 221 -31 485 -111
645 -195 1009 -267 1137 -224 66 23 102 82 84 139 -11 35 -64 88 -98 99 -18 6
-99 15 -182 21 -201 13 -344 39 -560 100 -99 29 -181 53 -183 55 -2 1 26 19
61 38 101 57 183 122 317 252 163 158 174 164 305 176 165 16 229 47 282 137
40 67 40 157 1 224 -55 92 -168 143 -266 118 -109 -27 -150 -66 -290 -279
-214 -324 -371 -447 -672 -524 l-85 -22 -2545 0 -2545 0 -98 27 c-204 56 -319
121 -458 258 -94 93 -156 176 -214 285 -62 119 -124 188 -205 229 -58 30 -123
38 -182 22z"/>
<path d="M1384 3776 c-85 -39 -119 -106 -95 -186 14 -46 48 -76 104 -91 34 -9
69 -7 192 12 101 16 194 24 283 24 72 0 132 1 132 2 0 8 -221 155 -283 188
-149 79 -243 93 -333 51z"/>
<path d="M8945 3782 c-90 -27 -178 -74 -295 -158 -58 -41 -106 -78 -107 -82
-2 -4 54 -8 125 -8 76 -1 177 -10 252 -23 153 -26 183 -26 237 -1 106 48 109
197 5 262 -46 28 -140 33 -217 10z"/>
<path d="M3258 3263 c7 -3 16 -2 19 1 4 3 -2 6 -13 5 -11 0 -14 -3 -6 -6z"/>
<path d="M7668 3233 c7 -3 16 -2 19 1 4 3 -2 6 -13 5 -11 0 -14 -3 -6 -6z"/>
<path d="M6020 2996 c0 -2 8 -10 18 -17 15 -13 16 -12 3 4 -13 16 -21 21 -21
13z"/>
<path d="M7496 2986 c3 -8 1 -17 -5 -20 -15 -10 -278 -53 -401 -66 -135 -15
-149 -22 -88 -49 66 -28 115 -40 248 -62 177 -29 240 -23 300 27 53 45 38 134
-30 169 -25 13 -29 13 -24 1z"/>
<path d="M2960 2954 c-28 -33 -32 -42 -27 -78 9 -65 74 -106 169 -106 129 0
444 73 455 106 2 7 -20 14 -59 18 -227 24 -464 58 -477 69 -9 7 -19 16 -22 20
-3 5 -21 -9 -39 -29z"/>
<path d="M1462 2868 c-7 -7 -12 -24 -12 -38 0 -32 17 -50 45 -50 25 0 55 29
55 52 0 36 -62 62 -88 36z"/>
<path d="M8986 2858 c-21 -29 -20 -41 2 -61 37 -34 82 -15 82 33 0 51 -55 69
-84 28z"/>
<path d="M6180 2836 c0 -2 8 -10 18 -17 15 -13 16 -12 3 4 -13 16 -21 21 -21
13z"/>
<path d="M2420 2585 c-116 -67 -128 -68 -121 -17 3 19 -33 -2 -53 -30 -36 -51
-5 -118 54 -118 49 0 83 24 130 91 24 35 57 78 73 96 16 18 25 33 21 33 -5 0
-52 -25 -104 -55z"/>
<path d="M8011 2621 c8 -10 37 -52 66 -93 28 -41 63 -82 77 -91 92 -61 187 48
104 119 l-33 27 -3 -26 c-5 -39 -26 -34 -121 28 -88 58 -113 68 -90 36z"/>
<path d="M5189 2273 c-90 -159 -97 -173 -114 -240 -22 -86 -7 -152 49 -208
149 -149 384 6 323 214 -14 49 -175 351 -186 351 -3 0 -36 -53 -72 -117z"/>
<path d="M5990 2387 c0 -4 15 -40 34 -80 19 -40 57 -120 84 -178 78 -167 134
-216 234 -207 68 7 101 43 95 104 -5 53 -29 88 -86 126 l-46 31 28 -29 c32
-35 34 -50 9 -63 -27 -14 -45 -1 -204 158 -82 80 -148 142 -148 138z"/>
<path d="M4395 2259 c-66 -66 -137 -134 -157 -150 -32 -26 -39 -28 -57 -17
-29 18 -26 29 16 61 20 15 31 27 25 27 -6 0 -38 -26 -71 -58 -53 -51 -61 -63
-61 -95 0 -44 22 -92 45 -101 61 -23 166 9 203 61 28 40 77 140 112 229 17 41
40 94 51 116 11 22 19 42 17 44 -2 2 -58 -51 -123 -117z"/>
<path d="M4770 2129 c-46 -27 -92 -49 -101 -49 -24 0 -30 24 -13 49 24 34 -1
24 -35 -14 -60 -68 -31 -155 51 -155 51 0 88 35 143 132 25 45 44 82 43 83 -2
1 -41 -19 -88 -46z"/>
<path d="M5660 2174 c0 -21 88 -169 112 -189 62 -52 158 -18 158 55 0 38 -24
86 -49 100 -18 9 -19 7 -14 -25 5 -30 3 -35 -14 -35 -11 0 -57 23 -102 50 -84
51 -91 54 -91 44z"/>
</g>
</svg>
